# xmcd
#
# Track frame offsets: 
#        150
#        20465
#        92780
#        113232
#
# Disc length: 1674 seconds
#
# Revision: 0
# Processed by: cddbd v1.5.1PL2 Copyright (c) Steve Scherf et al.
# Submitted via: ExactAudioCopy v0.95b4
#
DISCID=29068804
DTITLE=Richard Buckner - Richard  Buckner Since Promo (out takes, live
DTITLE=)
DYEAR=1998
DGENRE=Folk
TTITLE0=Lil Wallet Picture - live
TTITLE1=interview with liza richardson KCRW
TTITLE2=the catfish song live 
TTITLE3=Fater (monsoon version)
EXTD=
EXTT0=
EXTT1=
EXTT2=
EXTT3=
PLAYORDER=
